<svg xmlns="http://www.w3.org/2000/svg" width="1280" height="720" viewBox="0 0 1280 720">
<rect width="1280" height="720" fill="#F7F8F5"/>
<rect x="40" y="32" width="1200" height="72" rx="18" fill="#004D40"/>
<text x="72" y="78" fill="white" font-family="Arial" font-size="28" font-weight="700">Kopi Kita POS - Dashboard Wireframe</text>
<rect x="40" y="128" width="220" height="540" rx="18" fill="#FFFFFF" stroke="#E7E7E7"/>
<text x="72" y="174" fill="#004D40" font-family="Arial" font-size="22" font-weight="700">Sidebar</text>
<rect x="72" y="210" width="150" height="34" rx="8" fill="#EADCA6"/>
<rect x="72" y="260" width="150" height="34" rx="8" fill="#F1F5F9"/>
<rect x="72" y="310" width="150" height="34" rx="8" fill="#F1F5F9"/>
<rect x="292" y="128" width="214" height="130" rx="18" fill="#FFFFFF" stroke="#CBD5E1" stroke-dasharray="8 8"/>
<rect x="530" y="128" width="214" height="130" rx="18" fill="#FFFFFF" stroke="#CBD5E1" stroke-dasharray="8 8"/>
<rect x="768" y="128" width="214" height="130" rx="18" fill="#FFFFFF" stroke="#CBD5E1" stroke-dasharray="8 8"/>
<rect x="1006" y="128" width="234" height="130" rx="18" fill="#FFFFFF" stroke="#CBD5E1" stroke-dasharray="8 8"/>
<text x="320" y="198" fill="#64748B" font-family="Arial" font-size="20">Stat Cards</text>
<rect x="292" y="286" width="450" height="382" rx="18" fill="#FFFFFF" stroke="#CBD5E1" stroke-dasharray="8 8"/>
<rect x="770" y="286" width="470" height="382" rx="18" fill="#FFFFFF" stroke="#CBD5E1" stroke-dasharray="8 8"/>
<text x="452" y="484" fill="#64748B" font-family="Arial" font-size="24">Chart Area</text>
<text x="942" y="484" fill="#64748B" font-family="Arial" font-size="24">Detail Area</text>
</svg>