<svg xmlns="http://www.w3.org/2000/svg" width="1280" height="720" viewBox="0 0 1280 720">
<rect width="1280" height="720" fill="#F7F8F5"/>
<rect x="40" y="32" width="1200" height="72" rx="18" fill="#004D40"/>
<text x="72" y="78" fill="white" font-family="Arial" font-size="28" font-weight="700">Kopi Kita POS - Data Master Wireframe</text>
<rect x="40" y="128" width="220" height="540" rx="18" fill="#FFFFFF" stroke="#E7E7E7"/>
<text x="72" y="174" fill="#004D40" font-family="Arial" font-size="22" font-weight="700">Sidebar</text>
<rect x="292" y="128" width="948" height="82" rx="18" fill="#FFFFFF" stroke="#E7E7E7"/>
<rect x="320" y="150" width="380" height="38" rx="10" fill="#F1F5F9" stroke="#CBD5E1" stroke-dasharray="8 8"/>
<rect x="1052" y="150" width="150" height="38" rx="10" fill="#004D40"/>
<text x="1080" y="175" fill="white" font-family="Arial" font-size="16" font-weight="700">Tambah</text>
<rect x="292" y="238" width="948" height="430" rx="18" fill="#FFFFFF" stroke="#E7E7E7"/>
<rect x="320" y="270" width="892" height="48" rx="10" fill="#EADCA6"/>
<g fill="#F8FAFC" stroke="#CBD5E1" stroke-dasharray="8 8">
<rect x="320" y="336" width="892" height="54" rx="10"/>
<rect x="320" y="404" width="892" height="54" rx="10"/>
<rect x="320" y="472" width="892" height="54" rx="10"/>
<rect x="320" y="540" width="892" height="54" rx="10"/>
</g>
<text x="650" y="462" fill="#64748B" font-family="Arial" font-size="24">Tabel Produk + Aksi Edit/Hapus</text>
</svg>